<?xml version="1.0" encoding="UTF-8" standalone="no"?>
<svg
   xmlns:dc="http://purl.org/dc/elements/1.1/"
   xmlns:cc="http://creativecommons.org/ns#"
   xmlns:rdf="http://www.w3.org/1999/02/22-rdf-syntax-ns#"
   xmlns:svg="http://www.w3.org/2000/svg"
   xmlns="http://www.w3.org/2000/svg"
   id="svg8"
   version="1.1"
   viewBox="0 0 169.83264 169.83263"
   height="641.88715"
   width="641.88715">
  <defs
     id="defs2" />
  <metadata
     id="metadata5">
    <rdf:RDF>
      <cc:Work
         rdf:about="">
        <dc:format>image/svg+xml</dc:format>
        <dc:type
           rdf:resource="http://purl.org/dc/dcmitype/StillImage" />
        <dc:title></dc:title>
      </cc:Work>
    </rdf:RDF>
  </metadata>
  <rect
     style="opacity:1;fill:#2c3e50;fill-opacity:1;fill-rule:nonzero;stroke:none;stroke-width:0;stroke-linecap:round;stroke-linejoin:miter;stroke-miterlimit:4;stroke-dasharray:none;stroke-opacity:1"
     id="rect842"
     width="169.83264"
     height="169.83264"
     x="0.0010599296"
     y="0.0011038237" />
  <g
     id="g930"
     transform="matrix(0.81801582,0,0,0.81782948,15.45362,15.469451)">
    <g
       id="g863">
      <path
         style="opacity:1;fill:#000000;fill-opacity:0;fill-rule:nonzero;stroke:#7f8c8d;stroke-width:20.01960564;stroke-linecap:round;stroke-linejoin:round;stroke-miterlimit:4;stroke-dasharray:none;stroke-opacity:1"
         d="m 84.676675,10.058861 v 75.009682 l 65.012655,37.444387 0.10924,-0.15195 A 75.137469,75.009624 0 0 0 159.81422,85.068543 75.137469,75.009624 0 0 0 84.676675,10.058861 Z"
         id="path815-3" />
      <path
         id="path854"
         d="M 149.79862,122.36098 84.727609,84.856136 19.738228,122.34075 l 0.07714,0.17043 a 75.137469,75.009624 0 0 0 27.343415,27.30526 75.137469,75.009624 0 0 0 102.639787,-27.45546 z"
         style="opacity:1;fill:#000000;fill-opacity:0;fill-rule:nonzero;stroke:#7f8c8d;stroke-width:20.01960564;stroke-linecap:round;stroke-linejoin:round;stroke-miterlimit:4;stroke-dasharray:none;stroke-opacity:1" />
      <path
         style="opacity:1;fill:#000000;fill-opacity:0;fill-rule:nonzero;stroke:#7f8c8d;stroke-width:20.01960564;stroke-linecap:round;stroke-linejoin:round;stroke-miterlimit:4;stroke-dasharray:none;stroke-opacity:1"
         d="m 20.050289,122.45363 65.07101,-37.504842 -0.02324,-74.929003 -0.186441,-0.0185 A 75.137469,75.009624 0 0 0 47.552555,19.988454 75.137469,75.009624 0 0 0 20.050319,122.4536 Z"
         id="path856" />
    </g>
    <ellipse
       ry="15.501987"
       rx="15.528409"
       cy="84.917427"
       cx="84.917381"
       id="path884"
       style="opacity:1;fill:#ffffff;fill-opacity:1;fill-rule:nonzero;stroke:#7f8c8d;stroke-width:0;stroke-linecap:round;stroke-linejoin:round;stroke-miterlimit:4;stroke-dasharray:none;stroke-opacity:1" />
    <path
       style="opacity:1;fill:#000000;fill-opacity:0;fill-rule:nonzero;stroke:#7f8c8d;stroke-width:2.9207983;stroke-linecap:round;stroke-linejoin:round;stroke-miterlimit:4;stroke-dasharray:none;stroke-opacity:1"
       d="m 84.881317,73.994853 v 10.94368 l 9.485144,5.463019 0.01594,-0.02217 a 10.962323,10.943672 0 0 0 1.461253,-5.44085 10.962323,10.943672 0 0 0 -10.962335,-10.94368 z"
       id="path886" />
    <path
       id="path888"
       d="m 94.382407,90.379383 -9.493659,-5.47184 -9.481749,5.46889 0.01126,0.02486 a 10.962323,10.943672 0 0 0 3.989319,3.983753 10.962323,10.943672 0 0 0 14.974826,-4.005667 z"
       style="opacity:1;fill:#000000;fill-opacity:0;fill-rule:nonzero;stroke:#7f8c8d;stroke-width:2.9207983;stroke-linecap:round;stroke-linejoin:round;stroke-miterlimit:4;stroke-dasharray:none;stroke-opacity:1" />
    <path
       style="opacity:1;fill:#000000;fill-opacity:0;fill-rule:nonzero;stroke:#7f8c8d;stroke-width:2.9207983;stroke-linecap:round;stroke-linejoin:round;stroke-miterlimit:4;stroke-dasharray:none;stroke-opacity:1"
       d="m 75.452528,90.392901 9.493658,-5.47184 -0.0034,-10.931909 -0.0272,-0.0027 a 10.962323,10.943672 0 0 0 -5.450571,1.457097 10.962323,10.943672 0 0 0 -4.012491,14.949348 z"
       id="path890" />
    <ellipse
       ry="4.1926312"
       rx="4.1997771"
       style="opacity:1;fill:#7f8c8d;fill-opacity:1;fill-rule:nonzero;stroke:#7f8c8d;stroke-width:0;stroke-linecap:round;stroke-linejoin:round;stroke-miterlimit:4;stroke-dasharray:none;stroke-opacity:1"
       id="circle1003"
       cx="84.916275"
       cy="84.916321" />
  </g>
</svg>
